<svg width="163" height="48" viewBox="0 0 163 48" fill="none" xmlns="http://www.w3.org/2000/svg">
<path d="M19.0017 36.6673V47.5003L38 36.5269V25.6952L19.0017 36.6673Z" fill="#2947A9"/>
<path d="M27.5062 15.745L36.8802 10.3284L19.0017 0V10.8328L27.5062 15.745Z" fill="#0B267D"/>
<path d="M11.6182 18.9795V29.8158L19.0015 34.0795V23.2481L11.6182 18.9795Z" fill="#91A1D4"/>
<path d="M38 12.2701L19.0017 23.2481V34.0795L38 23.1061V12.2701Z" fill="#2947A9"/>
<path d="M1.13135 10.3221L10.4492 15.7703L19.0014 10.8328V0L1.13135 10.3221Z" fill="#2947A9"/>
<path d="M9.3772 31.1103V17.68L0 12.2652V36.5266L19.0014 47.5V36.6669L9.3772 31.1103Z" fill="#91A1D4"/>
<path d="M73.57 14.2L72.64 18.19H66.25L62.59 34H57.43L61.09 18.19H54.64L55.57 14.2H73.57ZM71.2188 34L76.1688 12.64H81.2688L79.0188 22.42L78.5088 23.14C78.7688 22.3 79.1588 21.55 79.6788 20.89C80.1988 20.23 80.8488 19.7 81.6288 19.3C82.4088 18.9 83.2988 18.7 84.2988 18.7C85.2988 18.7 86.1488 18.93 86.8488 19.39C87.5688 19.85 88.0688 20.5 88.3488 21.34C88.6488 22.18 88.6688 23.18 88.4088 24.34L86.1588 34H81.0588L83.1288 25.15C83.3088 24.35 83.2388 23.73 82.9188 23.29C82.5988 22.83 82.0788 22.6 81.3588 22.6C80.8188 22.6 80.3388 22.73 79.9188 22.99C79.5188 23.23 79.1688 23.6 78.8688 24.1C78.5888 24.58 78.3688 25.18 78.2088 25.9L76.3188 34H71.2188ZM97.96 34.27C96.48 34.27 95.18 33.99 94.06 33.43C92.94 32.85 92.07 32.05 91.45 31.03C90.83 30.01 90.52 28.82 90.52 27.46C90.52 25.78 90.86 24.29 91.54 22.99C92.24 21.67 93.22 20.63 94.48 19.87C95.76 19.11 97.28 18.73 99.04 18.73C100.5 18.73 101.74 19.01 102.76 19.57C103.8 20.11 104.59 20.88 105.13 21.88C105.67 22.88 105.94 24.06 105.94 25.42C105.94 25.8 105.92 26.2 105.88 26.62C105.84 27.04 105.76 27.45 105.64 27.85H93.82V25.09H102.31L100.9 25.87C100.98 25.59 101.03 25.35 101.05 25.15C101.07 24.95 101.08 24.76 101.08 24.58C101.08 24.06 100.99 23.63 100.81 23.29C100.63 22.95 100.38 22.7 100.06 22.54C99.74 22.36 99.36 22.27 98.92 22.27C98.2 22.27 97.6 22.44 97.12 22.78C96.66 23.12 96.29 23.57 96.01 24.13C95.73 24.67 95.53 25.26 95.41 25.9C95.31 26.54 95.26 27.16 95.26 27.76C95.26 28.4 95.38 28.94 95.62 29.38C95.88 29.82 96.22 30.16 96.64 30.4C97.08 30.62 97.59 30.73 98.17 30.73C98.89 30.73 99.47 30.57 99.91 30.25C100.35 29.91 100.69 29.49 100.93 28.99L105.13 30.64C104.79 31.4 104.26 32.05 103.54 32.59C102.84 33.13 102.01 33.55 101.05 33.85C100.11 34.13 99.08 34.27 97.96 34.27ZM109.151 34V14.2H118.781C121.221 14.22 123.021 14.69 124.181 15.61C125.341 16.51 125.921 17.82 125.921 19.54C125.921 20.66 125.591 21.63 124.931 22.45C124.271 23.25 123.261 23.76 121.901 23.98V24.01C123.421 24.21 124.551 24.74 125.291 25.6C126.051 26.44 126.431 27.46 126.431 28.66C126.431 30.36 125.831 31.68 124.631 32.62C123.431 33.54 121.631 34 119.231 34H109.151ZM114.131 30.37H118.361C119.301 30.37 120.001 30.18 120.461 29.8C120.921 29.42 121.151 28.87 121.151 28.15C121.151 27.45 120.921 26.92 120.461 26.56C120.001 26.18 119.301 25.99 118.361 25.99H114.131V30.37ZM114.131 22.3H117.881C119.721 22.3 120.641 21.58 120.641 20.14C120.641 18.7 119.721 17.98 117.881 17.98H114.131V22.3ZM136.439 18.7C138.019 18.7 139.399 19.01 140.579 19.63C141.779 20.23 142.709 21.12 143.369 22.3C144.049 23.46 144.389 24.86 144.389 26.5C144.389 28.14 144.049 29.55 143.369 30.73C142.709 31.89 141.779 32.78 140.579 33.4C139.399 34 138.019 34.3 136.439 34.3C134.899 34.3 133.529 34 132.329 33.4C131.129 32.78 130.189 31.89 129.509 30.73C128.849 29.55 128.519 28.14 128.519 26.5C128.519 24.86 128.849 23.46 129.509 22.3C130.189 21.12 131.129 20.23 132.329 19.63C133.529 19.01 134.899 18.7 136.439 18.7ZM136.439 22.33C135.859 22.33 135.359 22.47 134.939 22.75C134.519 23.03 134.199 23.48 133.979 24.1C133.759 24.72 133.649 25.52 133.649 26.5C133.649 27.48 133.759 28.28 133.979 28.9C134.199 29.5 134.519 29.95 134.939 30.25C135.359 30.53 135.859 30.67 136.439 30.67C137.039 30.67 137.549 30.53 137.969 30.25C138.389 29.95 138.709 29.5 138.929 28.9C139.149 28.28 139.259 27.48 139.259 26.5C139.259 25.52 139.149 24.72 138.929 24.1C138.709 23.48 138.389 23.03 137.969 22.75C137.549 22.47 137.039 22.33 136.439 22.33ZM150.847 19L154.507 25.75L156.187 25.6L162.097 34H156.247L152.467 27.16H150.697L144.967 19H150.847ZM161.977 19L156.307 27.1L154.417 26.98L150.487 34H144.757L150.787 25.54L152.527 25.78L156.247 19H161.977Z" fill="#2947A9"/>
</svg>
